# xmcd CD database file
#
# Track frame offsets:
#	150
#	21610
#	40951
#	61082
#	75212
#	94843
#	110129
#	128123
#	149252
#	167946
#	186583
#	200818
#	214547
#	233612
#
# Disc length: 3390 seconds
#
# Revision: 2
# Processed by: cddbd v1.5.2PL0 Copyright (c) Steve Scherf et al.
# Submitted via: CDex 1.51
#
DISCID=ca0d3c0e
DTITLE=Varios - Viola and Romance
DYEAR=2002
DGENRE=Sertanejo
TTITLE0=Um Homem Quando Ama - Chitãozinho and Xororó
TTITLE1=Frio da Madrugada - Rionegro and Solimões
TTITLE2=Por Te Amar Assim - Marlon e Maicon
TTITLE3=Atitude - Adalberto e Adriano
TTITLE4=A Mulher em Mim - Roberta Miranda
TTITLE5=Viola Está Chorando - João Mineiro and Marciano
TTITLE6=Pra Sempre Quero Amar - Nashville
TTITLE7=Só Lembranças (Ao Vivo) - Rionegro and Solimões
TTITLE8=A Vida Virou Paixâo - Emílio and Eduardo
TTITLE9=Nuvem de Lágrimas - Chitãozinho and Xororó
TTITLE10=Prisioneiro - Brenno Reis and Marco Viola
TTITLE11=Sempre Mais - Roberta Miranda
TTITLE12=Faltando Um Pedaço - André and Adriano
TTITLE13=Telefone Mudo - Som de Cristal (Ao Vivo) - Grupo Tradição
EXTD=YEAR: 2002
EXTT0=
EXTT1=
EXTT2=
EXTT3=
EXTT4=
EXTT5=
EXTT6=
EXTT7=
EXTT8=
EXTT9=
EXTT10=
EXTT11=
EXTT12=
EXTT13=
PLAYORDER=
